<?xml version="1.0" standalone="no"?>
<svg
  width="600"
  height="600"
  viewBox="0 0 600 600"
  xmlns="http://www.w3.org/2000/svg"
>
  <g transform="translate(300,300)">
    <path d="M113.4,-173.1C158,-147.8,212.7,-135,241,-101.7C269.4,-68.3,271.3,-14.5,255,30.4C238.8,75.3,204.4,111.3,169.3,140.3C134.2,169.2,98.4,191.1,57.5,209.1C16.7,227.1,-29.1,241.2,-72.4,234.1C-115.7,227.1,-156.5,199,-182.8,162.1C-209,125.1,-220.8,79.3,-218.3,36.9C-215.7,-5.4,-198.8,-44.2,-184.7,-88.1C-170.5,-131.9,-159,-180.8,-128.7,-212.6C-98.4,-244.4,-49.2,-259.2,-7.4,-247.7C34.4,-236.2,68.8,-198.5,113.4,-173.1Z" fill="#fc9d9a" />
  </g>
</svg>
    