<?xml version="1.0"?>
<svg xmlns="http://www.w3.org/2000/svg" height="512px" version="1.1" viewBox="0 -62 512 512" width="512px" class=""><g><g id="surface1">
<path d="M 132.414062 105.929688 C 132.414062 120.554688 120.554688 132.414062 105.929688 132.414062 C 91.304688 132.414062 79.449219 120.554688 79.449219 105.929688 C 79.449219 91.304688 91.304688 79.449219 105.929688 79.449219 C 120.554688 79.449219 132.414062 91.304688 132.414062 105.929688 Z M 132.414062 105.929688 " style=" stroke:none;fill-rule:nonzero;fill:rgb(100%,31.372549%,13.72549%);fill-opacity:1;" data-original="#FF5023" class=""/>
<path d="M 256 317.792969 L 256 353.101562 L 476.6875 353.101562 L 476.6875 317.792969 Z M 256 317.792969 " style=" stroke:none;fill-rule:nonzero;fill:rgb(100%,76.862745%,46.666667%);fill-opacity:1;" data-original="#FFC477" class=""/>
<path d="M 308.964844 105.929688 L 441.378906 317.792969 L 476.6875 317.792969 L 476.6875 0 L 256 0 L 256 190.691406 Z M 308.964844 105.929688 " style=" stroke:none;fill-rule:nonzero;fill:rgb(100%,76.862745%,46.666667%);fill-opacity:1;" data-original="#FFC477" class=""/>
<path d="M 256 317.792969 L 97.101562 317.792969 L 176.550781 194.207031 L 215.746094 255.117188 L 256 190.675781 L 256 0 L 0 0 L 0 353.105469 L 256 353.105469 Z M 132.414062 151.835938 L 141.242188 167.125 Z M 167.089844 70.621094 L 151.835938 79.449219 Z M 167.089844 141.242188 L 151.835938 132.414062 Z M 141.242188 44.773438 L 132.414062 60.027344 Z M 105.929688 79.449219 C 120.558594 79.449219 132.414062 91.304688 132.414062 105.929688 C 132.414062 120.558594 120.558594 132.414062 105.929688 132.414062 C 91.304688 132.414062 79.449219 120.558594 79.449219 105.929688 C 79.449219 91.304688 91.304688 79.449219 105.929688 79.449219 Z M 79.449219 60.027344 L 70.621094 44.738281 Z M 44.773438 141.242188 L 60.027344 132.414062 Z M 44.773438 70.621094 L 60.027344 79.449219 Z M 79.449219 151.835938 L 70.621094 167.125 Z M 79.449219 151.835938 " style=" stroke:none;fill-rule:nonzero;fill:rgb(100%,71.372549%,33.333333%);fill-opacity:1;" data-original="#FFB655" class=""/>
<path d="M 512 35.308594 L 476.6875 35.308594 L 476.6875 353.101562 L 256 353.101562 L 256 388.414062 L 512 388.414062 Z M 512 35.308594 " style=" stroke:none;fill-rule:nonzero;fill:rgb(100%,71.372549%,33.333333%);fill-opacity:1;" data-original="#FFB655" class=""/>
<path d="M 35.308594 353.101562 L 256 353.101562 L 256 388.414062 L 35.308594 388.414062 Z M 35.308594 353.101562 " style=" stroke:none;fill-rule:nonzero;fill:rgb(100%,65.490196%,20%);fill-opacity:1;" data-original="#FFA733" class=""/>
<path d="M 215.746094 255.117188 L 176.550781 194.207031 L 97.101562 317.792969 L 256 317.792969 L 256 190.691406 Z M 215.746094 255.117188 " style=" stroke:none;fill-rule:nonzero;fill:rgb(36.862745%,67.45098%,14.117647%);fill-opacity:1;" data-original="#5EAC24" class=""/>
<path d="M 308.964844 105.929688 L 256 190.691406 L 256 317.792969 L 441.378906 317.792969 Z M 308.964844 105.929688 " style="fill:#7ED63E" data-original="#7ED63E" class="" data-old_color=" stroke:nonefill-rule:nonzero;rgb(49.411765%,83.921569%,24.313725%);fill-opacity:1;"/>
<path d="M 105.929688 141.242188 C 86.429688 141.242188 70.621094 125.433594 70.621094 105.929688 C 70.621094 86.429688 86.429688 70.621094 105.929688 70.621094 C 125.429688 70.621094 141.242188 86.429688 141.242188 105.929688 C 141.242188 125.433594 125.433594 141.242188 105.929688 141.242188 Z M 105.929688 88.277344 C 96.179688 88.277344 88.277344 96.179688 88.277344 105.929688 C 88.277344 115.679688 96.179688 123.585938 105.929688 123.585938 C 115.679688 123.585938 123.585938 115.679688 123.585938 105.929688 C 123.585938 96.179688 115.683594 88.277344 105.929688 88.277344 Z M 105.929688 88.277344 " style=" stroke:none;fill-rule:nonzero;fill:rgb(100%,31.372549%,13.72549%);fill-opacity:1;" data-original="#FF5023" class=""/>
<path d="M 105.929688 61.792969 C 101.054688 61.792969 97.101562 57.839844 97.101562 52.964844 L 97.101562 35.308594 C 97.101562 30.433594 101.054688 26.484375 105.929688 26.484375 C 110.804688 26.484375 114.757812 30.433594 114.757812 35.308594 L 114.757812 52.964844 C 114.757812 57.839844 110.804688 61.792969 105.929688 61.792969 Z M 105.929688 61.792969 " style=" stroke:none;fill-rule:nonzero;fill:rgb(100%,31.372549%,13.72549%);fill-opacity:1;" data-original="#FF5023" class=""/>
<path d="M 79.449219 68.855469 C 76.292969 68.859375 73.375 67.175781 71.792969 64.441406 L 62.96875 49.152344 C 60.5 44.945312 61.910156 39.539062 66.117188 37.070312 C 70.324219 34.605469 75.734375 36.015625 78.199219 40.222656 C 78.21875 40.257812 78.238281 40.289062 78.257812 40.324219 L 87.082031 55.613281 C 89.523438 59.835938 88.074219 65.234375 83.851562 67.671875 C 82.515625 68.445312 80.996094 68.851562 79.449219 68.855469 Z M 79.449219 68.855469 " style=" stroke:none;fill-rule:nonzero;fill:rgb(100%,31.372549%,13.72549%);fill-opacity:1;" data-original="#FF5023" class=""/>
<path d="M 60.027344 88.277344 C 58.476562 88.277344 56.953125 87.871094 55.613281 87.09375 L 40.324219 78.265625 C 36.117188 75.800781 34.707031 70.390625 37.171875 66.183594 C 39.613281 62.019531 44.953125 60.589844 49.152344 62.976562 L 64.441406 71.804688 C 68.664062 74.242188 70.109375 79.640625 67.671875 83.863281 C 66.09375 86.59375 63.179688 88.277344 60.027344 88.277344 Z M 60.027344 88.277344 " style=" stroke:none;fill-rule:nonzero;fill:rgb(100%,31.372549%,13.72549%);fill-opacity:1;" data-original="#FF5023" class=""/>
<path d="M 52.964844 114.757812 L 35.308594 114.757812 C 30.433594 114.757812 26.484375 110.804688 26.484375 105.929688 C 26.484375 101.054688 30.433594 97.101562 35.308594 97.101562 L 52.964844 97.101562 C 57.839844 97.101562 61.792969 101.054688 61.792969 105.929688 C 61.792969 110.804688 57.839844 114.757812 52.964844 114.757812 Z M 52.964844 114.757812 " style=" stroke:none;fill-rule:nonzero;fill:rgb(100%,31.372549%,13.72549%);fill-opacity:1;" data-original="#FF5023" class=""/>
<path d="M 44.78125 150.070312 C 39.90625 150.070312 35.953125 146.117188 35.953125 141.242188 C 35.953125 138.085938 37.636719 135.171875 40.367188 133.597656 L 55.65625 124.769531 C 59.863281 122.304688 65.273438 123.714844 67.738281 127.917969 C 70.203125 132.125 68.792969 137.535156 64.585938 140 C 64.554688 140.019531 64.519531 140.039062 64.484375 140.058594 L 49.195312 148.886719 C 47.855469 149.660156 46.332031 150.070312 44.78125 150.070312 Z M 44.78125 150.070312 " style=" stroke:none;fill-rule:nonzero;fill:rgb(100%,31.372549%,13.72549%);fill-opacity:1;" data-original="#FF5023" class=""/>
<path d="M 70.621094 175.917969 C 65.746094 175.910156 61.796875 171.953125 61.800781 167.078125 C 61.804688 165.53125 62.210938 164.015625 62.984375 162.675781 L 71.8125 147.386719 C 74.222656 143.148438 79.609375 141.664062 83.851562 144.074219 C 88.089844 146.484375 89.570312 151.875 87.160156 156.113281 C 87.140625 156.144531 87.121094 156.179688 87.101562 156.210938 L 78.273438 171.503906 C 76.695312 174.234375 73.777344 175.917969 70.621094 175.917969 Z M 70.621094 175.917969 " style=" stroke:none;fill-rule:nonzero;fill:rgb(100%,31.372549%,13.72549%);fill-opacity:1;" data-original="#FF5023" class=""/>
<path d="M 105.929688 185.378906 C 101.054688 185.378906 97.101562 181.425781 97.101562 176.550781 L 97.101562 158.894531 C 97.101562 154.019531 101.054688 150.070312 105.929688 150.070312 C 110.804688 150.070312 114.757812 154.023438 114.757812 158.894531 L 114.757812 176.550781 C 114.757812 181.425781 110.804688 185.378906 105.929688 185.378906 Z M 105.929688 185.378906 " style=" stroke:none;fill-rule:nonzero;fill:rgb(100%,31.372549%,13.72549%);fill-opacity:1;" data-original="#FF5023" class=""/>
<path d="M 141.242188 175.917969 C 138.085938 175.917969 135.167969 174.238281 133.585938 171.503906 L 124.761719 156.210938 C 122.292969 152.007812 123.707031 146.597656 127.910156 144.132812 C 132.117188 141.667969 137.527344 143.078125 139.992188 147.285156 C 140.011719 147.316406 140.03125 147.351562 140.050781 147.382812 L 148.878906 162.671875 C 151.316406 166.894531 149.867188 172.292969 145.644531 174.734375 C 144.304688 175.507812 142.789062 175.914062 141.242188 175.917969 Z M 141.242188 175.917969 " style=" stroke:none;fill-rule:nonzero;fill:rgb(100%,31.372549%,13.72549%);fill-opacity:1;" data-original="#FF5023" class=""/>
<path d="M 167.078125 150.070312 C 165.53125 150.070312 164.007812 149.660156 162.664062 148.886719 L 147.375 140.058594 C 143.171875 137.59375 141.757812 132.183594 144.226562 127.976562 C 146.667969 123.8125 152.003906 122.382812 156.203125 124.769531 L 171.492188 133.597656 C 175.714844 136.035156 177.160156 141.433594 174.722656 145.65625 C 173.148438 148.386719 170.234375 150.070312 167.078125 150.070312 Z M 167.078125 150.070312 " style=" stroke:none;fill-rule:nonzero;fill:rgb(100%,31.372549%,13.72549%);fill-opacity:1;" data-original="#FF5023" class=""/>
<path d="M 176.550781 114.757812 L 158.894531 114.757812 C 154.019531 114.757812 150.070312 110.804688 150.070312 105.929688 C 150.070312 101.054688 154.019531 97.101562 158.894531 97.101562 L 176.550781 97.101562 C 181.425781 97.101562 185.378906 101.054688 185.378906 105.929688 C 185.378906 110.804688 181.425781 114.757812 176.550781 114.757812 Z M 176.550781 114.757812 " style=" stroke:none;fill-rule:nonzero;fill:rgb(100%,31.372549%,13.72549%);fill-opacity:1;" data-original="#FF5023" class=""/>
<path d="M 151.835938 88.277344 C 146.957031 88.277344 143.007812 84.324219 143.007812 79.449219 C 143.007812 76.292969 144.691406 73.378906 147.421875 71.804688 L 162.710938 62.976562 C 166.914062 60.507812 172.324219 61.921875 174.789062 66.125 C 177.253906 70.332031 175.84375 75.742188 171.640625 78.207031 C 171.605469 78.226562 171.570312 78.246094 171.539062 78.265625 L 156.25 87.09375 C 154.90625 87.871094 153.382812 88.277344 151.835938 88.277344 Z M 151.835938 88.277344 " style=" stroke:none;fill-rule:nonzero;fill:rgb(100%,31.372549%,13.72549%);fill-opacity:1;" data-original="#FF5023" class=""/>
<path d="M 132.414062 68.855469 C 127.539062 68.851562 123.589844 64.894531 123.59375 60.019531 C 123.597656 58.472656 124.003906 56.953125 124.777344 55.613281 L 133.605469 40.324219 C 136.070312 36.117188 141.480469 34.707031 145.6875 37.171875 C 149.851562 39.617188 151.28125 44.953125 148.894531 49.152344 L 140.066406 64.441406 C 138.488281 67.175781 135.570312 68.859375 132.414062 68.855469 Z M 132.414062 68.855469 " style=" stroke:none;fill-rule:nonzero;fill:rgb(100%,31.372549%,13.72549%);fill-opacity:1;" data-original="#FF5023" class=""/>
</g></g> </svg>
