<svg xmlns="http://www.w3.org/2000/svg" height="785pt" version="1.1" viewBox="0 -101 785 785" width="785pt">
<g id="surface1">
<path d="M 121.800781 162.398438 L 121.800781 311.300781 L 203 311.300781 C 203 206.601562 287.800781 121.800781 392.5 121.800781 C 497.199219 121.800781 582 206.601562 582 311.300781 L 785 311.300781 L 785 148.898438 C 785 119 760.800781 94.800781 730.898438 94.800781 L 582 94.800781 L 543.5 27.300781 C 533.898438 10.398438 515.898438 0 496.5 0 L 288.601562 0 C 269.199219 0 251.199219 10.398438 241.601562 27.300781 L 203 94.699219 L 54.101562 94.699219 C 24.199219 94.699219 0 118.898438 0 148.800781 L 0 311.199219 L 121.800781 311.199219 Z M 663.199219 148.898438 C 678.199219 148.898438 690.300781 161 690.300781 176 C 690.300781 191 678.101562 203 663.199219 203 C 648.199219 203 636.101562 190.898438 636.101562 175.898438 C 636.101562 160.898438 648.199219 148.898438 663.199219 148.898438 Z M 663.199219 148.898438 " style=" stroke:none;fill-rule:nonzero;fill:rgb(100%,85.490196%,66.666667%);fill-opacity:1;" />
<path d="M 582 311.300781 C 582 416 497.199219 500.800781 392.5 500.800781 C 287.800781 500.800781 203 416 203 311.300781 L 0 311.300781 L 0 527.898438 C 0 557.800781 24.199219 582 54.101562 582 L 730.800781 582 C 760.699219 582 784.898438 557.800781 784.898438 527.898438 L 784.898438 311.300781 Z M 582 311.300781 " style=" stroke:none;fill-rule:nonzero;fill:rgb(100%,71.372549%,33.333333%);fill-opacity:1;" />
<path d="M 392.5 121.800781 C 287.800781 121.800781 203 206.601562 203 311.300781 L 257.101562 311.300781 C 257.101562 236.5 317.699219 176 392.398438 176 C 467.101562 176 527.699219 236.601562 527.699219 311.300781 L 581.800781 311.300781 C 582 206.699219 497.199219 121.800781 392.5 121.800781 Z M 392.5 121.800781 " style=" stroke:none;fill-rule:nonzero;fill:rgb(95.294118%,95.686275%,99.215686%);fill-opacity:1;" />
<path d="M 392.5 446.699219 C 317.800781 446.601562 257.199219 386.101562 257.199219 311.398438 L 203 311.398438 C 203 416.101562 287.800781 500.898438 392.5 500.898438 C 497.199219 500.898438 582 416 582 311.300781 L 527.898438 311.300781 C 527.800781 386 467.199219 446.601562 392.5 446.699219 Z M 392.5 446.699219 " style=" stroke:none;fill-rule:nonzero;fill:rgb(86.27451%,87.058824%,97.647059%);fill-opacity:1;" />
<path d="M 392.5 176 C 317.800781 176.101562 257.199219 236.601562 257.199219 311.300781 L 527.898438 311.300781 C 527.800781 236.601562 467.199219 176 392.5 176 Z M 392.5 176 " style=" stroke:none;fill-rule:nonzero;fill:rgb(86.27451%,87.058824%,97.647059%);fill-opacity:1;" />
<path d="M 392.5 446.699219 C 467.199219 446.601562 527.800781 386.101562 527.800781 311.398438 L 257.199219 311.398438 C 257.199219 386 317.800781 446.601562 392.5 446.699219 Z M 392.5 446.699219 " style=" stroke:none;fill-rule:nonzero;fill:rgb(65.490196%,67.843137%,94.117647%);fill-opacity:1;" />
<path d="M 148.898438 40.601562 L 94.800781 40.601562 C 79.800781 40.601562 67.699219 52.699219 67.699219 67.699219 L 67.699219 94.800781 L 175.898438 94.800781 L 175.898438 67.699219 C 175.898438 52.699219 163.800781 40.601562 148.898438 40.601562 Z M 148.898438 40.601562 " style=" stroke:none;fill-rule:nonzero;fill:rgb(65.490196%,67.843137%,94.117647%);fill-opacity:1;" />
<path d="M 690.300781 54.101562 L 663.199219 54.101562 C 648.199219 54.101562 636.101562 66.199219 636.101562 81.199219 L 636.101562 94.699219 L 717.300781 94.699219 L 717.300781 81.199219 C 717.300781 66.300781 705.199219 54.101562 690.300781 54.101562 Z M 690.300781 54.101562 " style=" stroke:none;fill-rule:nonzero;fill:rgb(65.490196%,67.843137%,94.117647%);fill-opacity:1;" />
<path d="M 690.300781 176 C 690.300781 190.96875 678.167969 203.101562 663.199219 203.101562 C 648.234375 203.101562 636.101562 190.96875 636.101562 176 C 636.101562 161.03125 648.234375 148.898438 663.199219 148.898438 C 678.167969 148.898438 690.300781 161.03125 690.300781 176 Z M 690.300781 176 " style=" stroke:none;fill-rule:nonzero;fill:rgb(60%,62.352941%,92.941176%);fill-opacity:1;" />
<path d="M 121.800781 500.800781 C 114.300781 500.800781 108.300781 494.699219 108.300781 487.300781 L 108.300781 162.398438 C 108.300781 154.898438 114.398438 148.898438 121.800781 148.898438 C 129.199219 148.898438 135.300781 155 135.300781 162.398438 L 135.300781 487.199219 C 135.300781 494.699219 129.300781 500.800781 121.800781 500.800781 Z M 121.800781 500.800781 " style=" stroke:none;fill-rule:nonzero;fill:rgb(90.196078%,90.588235%,90.980392%);fill-opacity:1;" />
</g>
</svg>