<?xml version="1.0" encoding="iso-8859-1"?>
<!-- Generator: Adobe Illustrator 19.0.0, SVG Export Plug-In . SVG Version: 6.00 Build 0)  -->
<svg version="1.1" id="Layer_1" xmlns="http://www.w3.org/2000/svg" xmlns:xlink="http://www.w3.org/1999/xlink" x="0px" y="0px"
	 viewBox="0 0 511.881 511.881" style="enable-background:new 0 0 511.881 511.881;" xml:space="preserve">
<rect x="31.991" style="fill:#A0D468;" width="447.9" height="267.06"/>
<rect x="31.991" y="244.801" style="fill:#ED5564;" width="447.9" height="267.08"/>
<polygon style="fill:#E6E9ED;" points="106.639,170.617 161.478,79.216 216.325,170.617 "/>
<polygon style="fill:#F5F7FA;" points="152.339,170.617 225.471,42.646 298.587,170.617 "/>
<g>
	<path style="fill:#434A54;" d="M287.933,213.279H117.301c-5.89,0-10.662-4.78-10.662-10.669s4.772-10.654,10.662-10.654h170.632
		c5.89,0,10.654,4.765,10.654,10.654S293.823,213.279,287.933,213.279z"/>
	<path style="fill:#434A54;" d="M127.97,447.897c0,5.89-4.78,10.653-10.669,10.653c-5.89,0-10.662-4.764-10.662-10.653
		s4.772-10.67,10.662-10.67C123.19,437.227,127.97,442.007,127.97,447.897z"/>
	<path style="fill:#434A54;" d="M170.625,447.897c0,5.89-4.772,10.653-10.661,10.653c-5.89,0-10.67-4.764-10.67-10.653
		s4.78-10.67,10.67-10.67C165.852,437.227,170.625,442.007,170.625,447.897z"/>
	<path style="fill:#434A54;" d="M213.279,447.897c0,5.89-4.772,10.653-10.662,10.653c-5.889,0-10.661-4.764-10.661-10.653
		s4.772-10.67,10.661-10.67C208.506,437.227,213.279,442.007,213.279,447.897z"/>
	<path style="fill:#434A54;" d="M255.941,447.897c0,5.89-4.78,10.653-10.67,10.653c-5.889,0-10.661-4.764-10.661-10.653
		s4.772-10.67,10.661-10.67C251.161,437.227,255.941,442.007,255.941,447.897z"/>
	<path style="fill:#434A54;" d="M298.587,447.897c0,5.89-4.765,10.653-10.654,10.653c-5.889,0-10.67-4.764-10.67-10.653
		s4.781-10.67,10.67-10.67C293.823,437.227,298.587,442.007,298.587,447.897z"/>
</g>
<polygon style="fill:#E6E9ED;" points="106.639,415.904 161.478,324.488 216.325,415.904 "/>
<g>
	<polygon style="fill:#F5F7FA;" points="152.339,415.904 225.471,287.933 298.587,415.904 	"/>
	<path style="fill:#F5F7FA;" d="M434.103,107.178c-4.171-4.171-10.92-4.171-15.074,0c0,0-0.016,0-0.016,0.016l-37.695,37.679
		l-15.059-15.059c0,0-0.016-0.016-0.031-0.016c-4.155-4.171-10.904-4.171-15.074,0c-4.172,4.171-4.172,10.919,0,15.074l0,0
		l22.635,22.636v-0.016c4.155,4.171,10.904,4.171,15.074,0.016l0,0l45.24-45.255l0,0l0,0
		C438.274,118.098,438.274,111.334,434.103,107.178z"/>
	<path style="fill:#F5F7FA;" d="M434.103,395.94l-15.074-15.074l15.074-15.091l0,0c4.171-4.155,4.171-10.919,0-15.074
		c-4.171-4.171-10.92-4.171-15.074,0c0,0-0.016,0-0.016,0.016l-15.075,15.059l-15.06-15.059c0-0.016-0.016-0.016-0.016-0.016
		c-4.17-4.171-10.919-4.171-15.074,0c-4.171,4.155-4.171,10.919,0,15.074l0,0l0,0l15.074,15.091l-15.074,15.074l0,0l0,0
		c-4.171,4.171-4.171,10.92,0,15.091c4.155,4.155,10.904,4.155,15.074,0c0-0.016,0.016-0.016,0.016-0.016l15.06-15.075
		l15.075,15.075c0,0,0.016,0,0.016,0.016c4.154,4.155,10.903,4.155,15.074,0C438.274,406.86,438.274,400.111,434.103,395.94
		L434.103,395.94z"/>
</g>
<g>
</g>
<g>
</g>
<g>
</g>
<g>
</g>
<g>
</g>
<g>
</g>
<g>
</g>
<g>
</g>
<g>
</g>
<g>
</g>
<g>
</g>
<g>
</g>
<g>
</g>
<g>
</g>
<g>
</g>
</svg>
