<svg xmlns="http://www.w3.org/2000/svg" height="464pt" version="1.1" viewBox="0 0 464 464" width="464pt">
<g id="surface1">
<path d="M 80 248 L 256 248 L 256 312 L 80 312 Z M 80 248 " style=" stroke:none;fill-rule:nonzero;fill:rgb(100%,94.117647%,86.666667%);fill-opacity:1;" />
<path d="M 48 440 L 144 440 L 144 464 L 48 464 Z M 48 440 " style=" stroke:none;fill-rule:nonzero;fill:rgb(72.54902%,74.117647%,95.294118%);fill-opacity:1;" />
<path d="M 312 96 C 312 109.253906 301.253906 120 288 120 C 274.746094 120 264 109.253906 264 96 C 264 82.746094 274.746094 72 288 72 C 301.253906 72 312 82.746094 312 96 Z M 312 96 " style=" stroke:none;fill-rule:nonzero;fill:rgb(72.54902%,74.117647%,95.294118%);fill-opacity:1;" />
<path d="M 80 288 L 256 288 L 256 312 L 80 312 Z M 80 288 " style=" stroke:none;fill-rule:nonzero;fill:rgb(100%,76.862745%,46.666667%);fill-opacity:1;" />
<path d="M 80 248 L 256 248 L 256 288 L 336 288 L 336 179.199219 C 308.757812 194.875 275.570312 196.234375 247.136719 182.835938 C 218.703125 169.441406 198.621094 142.988281 193.359375 112 L 174.640625 112 C 170.375 112 166.289062 113.699219 163.28125 116.71875 L 127.441406 152.558594 C 123.398438 182.941406 98.382812 206.195312 67.789062 208.007812 C 37.191406 209.824219 9.605469 189.691406 2 160 L 0 160 L 0 288 L 80 288 Z M 80 248 " style=" stroke:none;fill-rule:nonzero;fill:rgb(88.235294%,89.019608%,98.039216%);fill-opacity:1;" />
<path d="M 256 288 L 256 312 L 80 312 L 80 288 L 0 288 L 0 440 L 184 440 L 248.078125 464 L 336 464 L 336 288 Z M 256 336 Z M 32 408 Z M 80 408 Z M 80 408 " style=" stroke:none;fill-rule:nonzero;fill:rgb(65.490196%,67.843137%,94.117647%);fill-opacity:1;" />
<path d="M 440 288 L 440 216 L 440 288 L 464 288 L 464 184 L 439.785156 184 L 368 240 L 368 288 Z M 440 288 " style=" stroke:none;fill-rule:nonzero;fill:rgb(100%,85.490196%,66.666667%);fill-opacity:1;" />
<path d="M 440 288 L 440 360 L 440 288 L 368 288 L 368 336 L 439.785156 392 L 464 392 L 464 288 Z M 440 288 " style=" stroke:none;fill-rule:nonzero;fill:rgb(100%,76.862745%,46.666667%);fill-opacity:1;" />
<path d="M 336 288 L 368 288 L 368 336 L 336 336 Z M 336 288 " style=" stroke:none;fill-rule:nonzero;fill:rgb(60%,62.352941%,92.941176%);fill-opacity:1;" />
<path d="M 336 240 L 368 240 L 368 288 L 336 288 Z M 336 240 " style=" stroke:none;fill-rule:nonzero;fill:rgb(76.862745%,78.431373%,96.078431%);fill-opacity:1;" />
<path d="M 344 96 L 312 96 C 312 109.253906 301.253906 120 288 120 C 274.746094 120 264 109.253906 264 96 L 192 96 C 192 149.019531 234.980469 192 288 192 C 341.019531 192 384 149.019531 384 96 Z M 237.089844 146.910156 L 248.398438 135.601562 Z M 288 168 Z M 327.601562 135.601562 L 338.910156 146.910156 Z M 327.601562 135.601562 " style=" stroke:none;fill-rule:nonzero;fill:rgb(100%,58.039216%,47.058824%);fill-opacity:1;" />
<path d="M 288 0 C 234.980469 0 192 42.980469 192 96 L 264 96 C 264 82.746094 274.746094 72 288 72 C 301.253906 72 312 82.746094 312 96 L 384 96 C 384 42.980469 341.019531 0 288 0 Z M 237.089844 45.089844 L 248.398438 56.398438 Z M 288 40 Z M 327.601562 56.398438 L 338.910156 45.089844 Z M 327.601562 56.398438 " style=" stroke:none;fill-rule:nonzero;fill:rgb(100%,73.72549%,67.058824%);fill-opacity:1;" />
<path d="M 64 128 C 72.835938 128 80 135.164062 80 144 L 128 144 C 128 108.652344 99.347656 80 64 80 C 28.652344 80 0 108.652344 0 144 L 48 144 C 48 135.164062 55.164062 128 64 128 Z M 64 128 " style=" stroke:none;fill-rule:nonzero;fill:rgb(100%,83.137255%,78.823529%);fill-opacity:1;" />
<path d="M 80 144 C 80 152.835938 72.835938 160 64 160 C 55.164062 160 48 152.835938 48 144 L 0 144 C 0.0078125 149.394531 0.679688 154.769531 2 160 C 9.605469 189.691406 37.191406 209.824219 67.789062 208.007812 C 98.382812 206.195312 123.398438 182.941406 127.441406 152.558594 C 127.828125 149.722656 128.015625 146.863281 128 144 Z M 80 144 " style=" stroke:none;fill-rule:nonzero;fill:rgb(100%,73.72549%,67.058824%);fill-opacity:1;" />
<path d="M 64 160 C 72.835938 160 80 152.835938 80 144 L 48 144 C 48 152.835938 55.164062 160 64 160 Z M 64 160 " style=" stroke:none;fill-rule:nonzero;fill:rgb(72.54902%,74.117647%,95.294118%);fill-opacity:1;" />
<path d="M 64 128 C 55.164062 128 48 135.164062 48 144 L 80 144 C 80 135.164062 72.835938 128 64 128 Z M 64 128 " style=" stroke:none;fill-rule:nonzero;fill:rgb(72.54902%,74.117647%,95.294118%);fill-opacity:1;" />
<path d="M 440 368 C 435.582031 368 432 364.417969 432 360 L 432 216 C 432 211.582031 435.582031 208 440 208 C 444.417969 208 448 211.582031 448 216 L 448 360 C 448 364.417969 444.417969 368 440 368 Z M 440 368 " style=" stroke:none;fill-rule:nonzero;fill:rgb(94.509804%,94.901961%,94.901961%);fill-opacity:1;" />
<path d="M 256 344 L 80 344 C 75.582031 344 72 340.417969 72 336 C 72 331.582031 75.582031 328 80 328 L 256 328 C 260.417969 328 264 331.582031 264 336 C 264 340.417969 260.417969 344 256 344 Z M 256 344 " style=" stroke:none;fill-rule:nonzero;fill:rgb(94.509804%,94.901961%,94.901961%);fill-opacity:1;" />
<path d="M 304 416 L 80 416 C 75.582031 416 72 412.417969 72 408 C 72 403.582031 75.582031 400 80 400 L 304 400 C 308.417969 400 312 403.582031 312 408 C 312 412.417969 308.417969 416 304 416 Z M 304 416 " style=" stroke:none;fill-rule:nonzero;fill:rgb(94.509804%,94.901961%,94.901961%);fill-opacity:1;" />
<path d="M 48 416 L 32 416 C 27.582031 416 24 412.417969 24 408 C 24 403.582031 27.582031 400 32 400 L 48 400 C 52.417969 400 56 403.582031 56 408 C 56 412.417969 52.417969 416 48 416 Z M 48 416 " style=" stroke:none;fill-rule:nonzero;fill:rgb(94.509804%,94.901961%,94.901961%);fill-opacity:1;" />
<path d="M 288 48 C 283.582031 48 280 44.417969 280 40 L 280 24 C 280 19.582031 283.582031 16 288 16 C 292.417969 16 296 19.582031 296 24 L 296 40 C 296 44.417969 292.417969 48 288 48 Z M 288 48 " style=" stroke:none;fill-rule:nonzero;fill:rgb(94.509804%,94.901961%,94.901961%);fill-opacity:1;" />
<path d="M 248.398438 64.398438 C 246.277344 64.398438 244.242188 63.554688 242.742188 62.054688 L 231.433594 50.742188 C 228.398438 47.605469 228.445312 42.617188 231.53125 39.53125 C 234.617188 36.445312 239.605469 36.398438 242.742188 39.433594 L 254.054688 50.742188 C 256.34375 53.03125 257.027344 56.472656 255.789062 59.460938 C 254.550781 62.449219 251.636719 64.398438 248.398438 64.398438 Z M 248.398438 64.398438 " style=" stroke:none;fill-rule:nonzero;fill:rgb(94.509804%,94.901961%,94.901961%);fill-opacity:1;" />
<path d="M 232 104 L 216 104 C 211.582031 104 208 100.417969 208 96 C 208 91.582031 211.582031 88 216 88 L 232 88 C 236.417969 88 240 91.582031 240 96 C 240 100.417969 236.417969 104 232 104 Z M 232 104 " style=" stroke:none;fill-rule:nonzero;fill:rgb(94.509804%,94.901961%,94.901961%);fill-opacity:1;" />
<path d="M 237.089844 154.910156 C 233.851562 154.910156 230.9375 152.960938 229.699219 149.972656 C 228.460938 146.984375 229.144531 143.542969 231.433594 141.257812 L 242.742188 129.945312 C 245.882812 126.914062 250.871094 126.957031 253.957031 130.042969 C 257.042969 133.128906 257.085938 138.117188 254.054688 141.257812 L 242.742188 152.566406 C 241.246094 154.074219 239.210938 154.917969 237.089844 154.910156 Z M 237.089844 154.910156 " style=" stroke:none;fill-rule:nonzero;fill:rgb(94.509804%,94.901961%,94.901961%);fill-opacity:1;" />
<path d="M 288 176 C 283.582031 176 280 172.417969 280 168 L 280 152 C 280 147.582031 283.582031 144 288 144 C 292.417969 144 296 147.582031 296 152 L 296 168 C 296 172.417969 292.417969 176 288 176 Z M 288 176 " style=" stroke:none;fill-rule:nonzero;fill:rgb(94.509804%,94.901961%,94.901961%);fill-opacity:1;" />
<path d="M 338.910156 154.910156 C 336.789062 154.917969 334.753906 154.074219 333.257812 152.566406 L 321.945312 141.257812 C 318.914062 138.117188 318.957031 133.128906 322.042969 130.042969 C 325.128906 126.957031 330.117188 126.914062 333.257812 129.945312 L 344.566406 141.257812 C 346.855469 143.542969 347.539062 146.984375 346.300781 149.972656 C 345.0625 152.960938 342.148438 154.910156 338.910156 154.910156 Z M 338.910156 154.910156 " style=" stroke:none;fill-rule:nonzero;fill:rgb(94.509804%,94.901961%,94.901961%);fill-opacity:1;" />
<path d="M 360 104 L 344 104 C 339.582031 104 336 100.417969 336 96 C 336 91.582031 339.582031 88 344 88 L 360 88 C 364.417969 88 368 91.582031 368 96 C 368 100.417969 364.417969 104 360 104 Z M 360 104 " style=" stroke:none;fill-rule:nonzero;fill:rgb(94.509804%,94.901961%,94.901961%);fill-opacity:1;" />
<path d="M 327.601562 64.398438 C 324.363281 64.398438 321.449219 62.449219 320.210938 59.460938 C 318.972656 56.472656 319.65625 53.03125 321.945312 50.742188 L 333.257812 39.433594 C 335.265625 37.351562 338.238281 36.519531 341.035156 37.25 C 343.832031 37.984375 346.015625 40.167969 346.75 42.964844 C 347.480469 45.761719 346.648438 48.734375 344.566406 50.742188 L 333.257812 62.054688 C 331.757812 63.554688 329.722656 64.398438 327.601562 64.398438 Z M 327.601562 64.398438 " style=" stroke:none;fill-rule:nonzero;fill:rgb(94.509804%,94.901961%,94.901961%);fill-opacity:1;" />
</g>
</svg>